<svg width="80" height="80" viewBox="0 0 80 80" fill="none" xmlns="http://www.w3.org/2000/svg">
<path d="M75.8979 48.6396C75.4319 48.4544 74.8998 48.5702 74.5535 48.9327L69.3334 54.4196V21.8288H69.3396L74.3202 16.451C74.7784 15.9559 74.7482 15.1821 74.2525 14.7239C74.2525 14.7239 74.2519 14.7233 74.2513 14.7228L72.4587 13.0544L74.9496 10.3655C75.4072 9.86977 75.3765 9.09656 74.8808 8.6389L69.503 3.65833C69.0078 3.2001 68.2346 3.22976 67.7764 3.72546L59.0864 13.1087H16.7778C16.7739 9.73494 14.0403 7.00127 10.6665 6.99736H9.44461C6.07089 7.00127 3.33723 9.73494 3.33331 13.1087V65.6642C3.33331 66.339 3.88049 66.8862 4.5558 66.8862H23.0575L20.4906 69.9684C20.0592 70.4876 20.1297 71.258 20.6484 71.6894L26.2841 76.3818C26.8028 76.8137 27.5737 76.7432 28.0057 76.2246L28.0062 76.224L34.2619 68.7084C34.6938 68.1881 34.9719 67.5564 35.0636 66.8862H57.4594L50.1139 74.5998C49.6489 75.0888 49.6685 75.8626 50.1575 76.3276C50.3847 76.5435 50.6862 76.6644 51.0001 76.6638H75.4442C76.1195 76.6638 76.6666 76.1166 76.6666 75.4419V49.7753C76.6666 49.2751 76.3623 48.8253 75.8979 48.6396ZM71.6962 15.675L69.3334 18.2308V16.4331L70.7999 14.8442L71.6962 15.675ZM66.889 15.4574V15.4747L56.5525 26.646L52.9628 23.3249L65.4148 9.86809L69.0044 13.1892L66.9036 15.4574H66.889ZM54.2048 27.802L51.3934 28.6222L51.9937 25.7548L54.2048 27.802ZM68.7359 6.28009L72.3239 9.59954L70.6633 11.3972L67.0748 8.07437L68.7359 6.28009ZM9.44461 9.44176H10.6665C12.6919 9.44176 14.3334 11.0833 14.3334 13.1087V59.5848C13.2816 58.7758 11.9931 58.3349 10.6665 58.3305H9.44461C8.1175 58.3349 6.82956 58.7758 5.77772 59.5848V13.1087C5.77772 11.0833 7.41926 9.44176 9.44461 9.44176ZM9.44461 60.7749H10.6665C12.6919 60.7749 14.3334 62.417 14.3334 64.4418H5.77772C5.77772 62.417 7.41926 60.7749 9.44461 60.7749ZM32.3842 67.1452L31.6021 68.084L27.8451 64.9565L28.6261 64.0166C29.0581 63.4979 29.8285 63.4274 30.3471 63.8593C30.3477 63.8593 30.3477 63.8599 30.3482 63.8599L32.2264 65.4198C32.7456 65.8511 32.8167 66.6215 32.3853 67.1407C32.3848 67.1413 32.3848 67.1413 32.3842 67.1419V67.1452ZM26.9102 73.7209L23.1526 70.5933L26.2808 66.8347L30.0377 69.9628L26.9102 73.7209ZM34.55 64.4418C34.3469 64.1033 34.0901 63.8006 33.7897 63.5449L31.9114 61.9817C30.3549 60.6859 28.0431 60.8968 26.7474 62.4533L25.089 64.4418H16.7778V15.5531H56.8249L50.3388 22.5623C50.2459 22.667 50.1721 22.7878 50.1211 22.9182C50.1066 22.9534 50.0954 22.9864 50.0831 23.0234C50.0713 23.0597 50.0529 23.0967 50.0439 23.1358L48.5848 30.1121C48.4471 30.7728 48.8712 31.4202 49.532 31.5578C49.7284 31.5986 49.9315 31.5908 50.1234 31.5349L56.9682 29.5403C57.0001 29.5302 57.0269 29.5118 57.0571 29.5011C57.0879 29.4899 57.1198 29.4743 57.1528 29.458C57.2899 29.3959 57.4141 29.3081 57.5193 29.2001L66.889 19.0739V56.986L59.788 64.4418H34.55ZM74.2222 74.2194H53.8512L74.2222 52.8307V74.2194Z" fill="#EE1F23"/>
<path d="M60.8708 71.0208C61.0599 71.4773 61.5058 71.7749 62.0004 71.7749H70.5555C71.2308 71.7749 71.778 71.2278 71.778 70.553V61.9973C71.778 61.322 71.2303 60.7754 70.5555 60.7754C70.2316 60.7754 69.9205 60.9041 69.6917 61.1335L61.136 69.6886C60.7863 70.0383 60.6817 70.5642 60.8708 71.0208ZM69.3336 64.9475V69.3305H64.9506L69.3336 64.9475Z" fill="#EE1F23"/>
<path d="M57.1109 49.7754H48.5558V36.3309C48.5541 36.0064 48.4249 35.6953 48.196 35.4653L40.8628 28.1321C40.3856 27.6549 39.6118 27.6549 39.1346 28.1321L31.8013 35.4653C31.5736 35.6958 31.4455 36.0069 31.4444 36.3309V49.7754H22.8892C22.2139 49.7754 21.6667 50.3226 21.6667 50.9973C21.6667 51.6726 22.2139 52.2198 22.8892 52.2198H57.1115C57.7862 52.2198 58.3334 51.6726 58.3334 50.9973C58.3334 50.3226 57.7862 49.7754 57.1109 49.7754ZM40.0001 30.7253L44.3831 35.1084H35.617L40.0001 30.7253ZM33.8888 37.5528H46.1114V49.7754H33.8888V37.5528Z" fill="#EE1F23"/>
<path d="M38.7775 22.8862H41.2224V25.3306H38.7775V22.8862Z" fill="#EE1F23"/>
<path d="M38.7775 54.6641H41.2224V57.1085H38.7775V54.6641Z" fill="#EE1F23"/>
</svg>
