<svg width="30" height="30" viewBox="0 0 30 30" fill="none" xmlns="http://www.w3.org/2000/svg">
<path d="M25 6.73392V1H19.2551" stroke="#265BC5" stroke-width="2" stroke-linecap="round" stroke-linejoin="round"/>
<path d="M18.2976 7.68957L25 1" stroke="#265BC5" stroke-width="2" stroke-linecap="round" stroke-linejoin="round"/>
<g filter="url(#filter0_dd)">
<path d="M24.0426 16.214V19.081C24.0437 19.3471 23.989 19.6106 23.8822 19.8544C23.7754 20.0983 23.6187 20.3172 23.4222 20.4971C23.2257 20.677 22.9937 20.814 22.7411 20.8993C22.4885 20.9846 22.2208 21.0162 21.9553 20.9923C19.0089 20.6727 16.1787 19.6679 13.6922 18.0584C11.3787 16.5912 9.41731 14.6335 7.94725 12.3245C6.32908 9.83139 5.32206 6.9929 5.00777 4.03898C4.98384 3.77471 5.01531 3.50837 5.10017 3.2569C5.18503 3.00543 5.32142 2.77436 5.50065 2.57838C5.67989 2.38241 5.89805 2.22583 6.14123 2.11862C6.38442 2.01141 6.64731 1.95591 6.91317 1.95566H9.78562C10.2503 1.95109 10.7008 2.11533 11.0531 2.41775C11.4054 2.72017 11.6356 3.14014 11.7006 3.59938C11.8218 4.51687 12.0467 5.41773 12.3708 6.28477C12.4997 6.62682 12.5275 6.99856 12.4512 7.35594C12.3748 7.71332 12.1974 8.04136 11.94 8.3012L10.724 9.51487C12.087 11.9074 14.0718 13.8884 16.4689 15.2488L17.6849 14.0351C17.9452 13.7782 18.2739 13.6011 18.6319 13.5249C18.99 13.4487 19.3625 13.4765 19.7052 13.6051C20.5739 13.9286 21.4764 14.153 22.3957 14.274C22.8608 14.3395 23.2856 14.5733 23.5892 14.931C23.8929 15.2887 24.0542 15.7453 24.0426 16.214Z" stroke="#265BC5" stroke-width="2" stroke-linecap="round" stroke-linejoin="round"/>
<path d="M24.0426 16.214V19.081C24.0437 19.3471 23.989 19.6106 23.8822 19.8544C23.7754 20.0983 23.6187 20.3172 23.4222 20.4971C23.2257 20.677 22.9937 20.814 22.7411 20.8993C22.4885 20.9846 22.2208 21.0162 21.9553 20.9923C19.0089 20.6727 16.1787 19.6679 13.6922 18.0584C11.3787 16.5912 9.41731 14.6335 7.94725 12.3245C6.32908 9.83139 5.32206 6.9929 5.00777 4.03898C4.98384 3.77471 5.01531 3.50837 5.10017 3.2569C5.18503 3.00543 5.32142 2.77436 5.50065 2.57838C5.67989 2.38241 5.89805 2.22583 6.14123 2.11862C6.38442 2.01141 6.64731 1.95591 6.91317 1.95566H9.78562C10.2503 1.95109 10.7008 2.11533 11.0531 2.41775C11.4054 2.72017 11.6356 3.14014 11.7006 3.59938C11.8218 4.51687 12.0467 5.41773 12.3708 6.28477C12.4997 6.62682 12.5275 6.99856 12.4512 7.35594C12.3748 7.71332 12.1974 8.04136 11.94 8.3012L10.724 9.51487C12.087 11.9074 14.0718 13.8884 16.4689 15.2488L17.6849 14.0351C17.9452 13.7782 18.2739 13.6011 18.6319 13.5249C18.99 13.4487 19.3625 13.4765 19.7052 13.6051C20.5739 13.9286 21.4764 14.153 22.3957 14.274C22.8608 14.3395 23.2856 14.5733 23.5892 14.931C23.8929 15.2887 24.0542 15.7453 24.0426 16.214Z" stroke="url(#paint0_linear)" stroke-width="2" stroke-linecap="round" stroke-linejoin="round"/>
<path d="M24.0426 16.214V19.081C24.0437 19.3471 23.989 19.6106 23.8822 19.8544C23.7754 20.0983 23.6187 20.3172 23.4222 20.4971C23.2257 20.677 22.9937 20.814 22.7411 20.8993C22.4885 20.9846 22.2208 21.0162 21.9553 20.9923C19.0089 20.6727 16.1787 19.6679 13.6922 18.0584C11.3787 16.5912 9.41731 14.6335 7.94725 12.3245C6.32908 9.83139 5.32206 6.9929 5.00777 4.03898C4.98384 3.77471 5.01531 3.50837 5.10017 3.2569C5.18503 3.00543 5.32142 2.77436 5.50065 2.57838C5.67989 2.38241 5.89805 2.22583 6.14123 2.11862C6.38442 2.01141 6.64731 1.95591 6.91317 1.95566H9.78562C10.2503 1.95109 10.7008 2.11533 11.0531 2.41775C11.4054 2.72017 11.6356 3.14014 11.7006 3.59938C11.8218 4.51687 12.0467 5.41773 12.3708 6.28477C12.4997 6.62682 12.5275 6.99856 12.4512 7.35594C12.3748 7.71332 12.1974 8.04136 11.94 8.3012L10.724 9.51487C12.087 11.9074 14.0718 13.8884 16.4689 15.2488L17.6849 14.0351C17.9452 13.7782 18.2739 13.6011 18.6319 13.5249C18.99 13.4487 19.3625 13.4765 19.7052 13.6051C20.5739 13.9286 21.4764 14.153 22.3957 14.274C22.8608 14.3395 23.2856 14.5733 23.5892 14.931C23.8929 15.2887 24.0542 15.7453 24.0426 16.214Z" stroke="url(#paint1_linear)" stroke-width="2" stroke-linecap="round" stroke-linejoin="round"/>
</g>
<defs>
<filter id="filter0_dd" x="0" y="0.955566" width="29.0432" height="29.0445" filterUnits="userSpaceOnUse" color-interpolation-filters="sRGB">
<feFlood flood-opacity="0" result="BackgroundImageFix"/>
<feColorMatrix in="SourceAlpha" type="matrix" values="0 0 0 0 0 0 0 0 0 0 0 0 0 0 0 0 0 0 127 0" result="hardAlpha"/>
<feOffset dy="4"/>
<feGaussianBlur stdDeviation="2"/>
<feColorMatrix type="matrix" values="0 0 0 0 0 0 0 0 0 0 0 0 0 0 0 0 0 0 0.25 0"/>
<feBlend mode="normal" in2="BackgroundImageFix" result="effect1_dropShadow"/>
<feColorMatrix in="SourceAlpha" type="matrix" values="0 0 0 0 0 0 0 0 0 0 0 0 0 0 0 0 0 0 127 0" result="hardAlpha"/>
<feOffset dy="4"/>
<feGaussianBlur stdDeviation="2"/>
<feColorMatrix type="matrix" values="0 0 0 0 0 0 0 0 0 0 0 0 0 0 0 0 0 0 0.25 0"/>
<feBlend mode="normal" in2="effect1_dropShadow" result="effect2_dropShadow"/>
<feBlend mode="normal" in="SourceGraphic" in2="effect2_dropShadow" result="shape"/>
</filter>
<linearGradient id="paint0_linear" x1="14.5216" y1="1.95557" x2="14.5216" y2="21" gradientUnits="userSpaceOnUse">
<stop stop-color="white"/>
<stop offset="1" stop-color="white" stop-opacity="0"/>
</linearGradient>
<linearGradient id="paint1_linear" x1="14.5216" y1="1.95557" x2="14.5216" y2="21" gradientUnits="userSpaceOnUse">
<stop stop-color="white"/>
<stop offset="1" stop-color="white" stop-opacity="0"/>
</linearGradient>
</defs>
</svg>
